<svg width="200" height="200" viewBox="0 0 200 200" fill="none" xmlns="http://www.w3.org/2000/svg">
<path d="M99.3894 28.0433C59.7125 28.0433 27.4328 60.323 27.4328 100C27.4328 139.677 59.7125 171.957 99.3894 171.957C139.066 171.957 171.346 139.677 171.346 100C171.346 60.323 139.066 28.0433 99.3894 28.0433ZM99.3894 165.981C63.0074 165.981 33.4082 136.382 33.4082 100C33.4082 63.6179 63.0074 34.0187 99.3894 34.0187C135.771 34.0187 165.371 63.6179 165.371 100C165.371 136.382 135.772 165.981 99.3894 165.981Z" fill="#491E17"/>
<path d="M99.3895 49.2617C71.4121 49.2617 48.6508 72.023 48.6508 100C48.6508 115.554 55.6617 130.041 67.8856 139.748L71.6016 135.07C60.8133 126.502 54.6262 113.72 54.6262 100C54.6262 75.318 74.7066 55.2371 99.3895 55.2371C124.072 55.2371 144.153 75.3176 144.153 100C144.153 124.683 124.072 144.763 99.3895 144.763C91.407 144.763 83.5664 142.627 76.7156 138.584L73.6789 143.73C81.4492 148.316 90.3402 150.739 99.3895 150.739C127.367 150.739 150.128 127.977 150.128 100C150.128 72.0227 127.366 49.2617 99.3895 49.2617Z" fill="#491E17"/>
<path d="M38.5457 55.6625V31H32.5703V55.6625C32.5703 60.0855 30.4473 63.0723 26.7605 64.0801V31H20.7852V64.0797C17.0988 63.0719 14.975 60.0852 14.975 55.6625V31H9V55.6625C9 63.4605 13.6254 68.9973 20.7848 70.1918V166.02H26.7602V70.1918C33.9203 68.9977 38.5457 63.4605 38.5457 55.6625Z" fill="#491E17"/>
<path d="M174.988 24H172V26.9875V105.452V162.007H177.975V105.187C186.034 103.768 192.177 96.7215 192.177 88.2629V41.1895C192.177 31.7109 184.466 24 174.988 24ZM186.202 88.2629C186.202 93.4125 182.713 97.7621 177.975 99.073V30.3793C182.713 31.6902 186.202 36.0398 186.202 41.1895V88.2629Z" fill="#491E17"/>
<path d="M117.153 73.4084C118.42 71.1361 119.053 70 120 70C120.947 70 121.58 71.1361 122.847 73.4084L123.175 73.9962C123.535 74.6419 123.714 74.9648 123.995 75.1778C124.276 75.3908 124.625 75.4699 125.324 75.628L125.961 75.772C128.42 76.3286 129.65 76.6068 129.943 77.5477C130.235 78.4886 129.397 79.4691 127.72 81.4299L127.286 81.9372C126.81 82.4944 126.571 82.773 126.464 83.1177C126.357 83.4624 126.393 83.8341 126.465 84.5776L126.531 85.2544C126.784 87.8706 126.911 89.1787 126.145 89.7602C125.379 90.3417 124.227 89.8115 121.924 88.7512L121.329 88.4768C120.674 88.1755 120.347 88.0248 120 88.0248C119.653 88.0248 119.326 88.1755 118.672 88.4768L118.076 88.7512C115.773 89.8115 114.621 90.3417 113.855 89.7602C113.089 89.1787 113.216 87.8706 113.469 85.2544L113.535 84.5776C113.607 83.8341 113.643 83.4624 113.536 83.1177C113.429 82.773 113.19 82.4944 112.714 81.9372L112.28 81.4299C110.603 79.4691 109.765 78.4886 110.057 77.5477C110.35 76.6068 111.58 76.3286 114.04 75.772L114.676 75.628C115.375 75.4699 115.724 75.3908 116.005 75.1778C116.286 74.9648 116.466 74.6419 116.825 73.9962L117.153 73.4084Z" fill="#491E17"/>
<path d="M94.1111 85.338C96.0639 81.8349 97.0402 80.0834 98.5 80.0834C99.9598 80.0834 100.936 81.8349 102.889 85.3379L103.394 86.2442C103.949 87.2397 104.226 87.7374 104.659 88.0658C105.092 88.3942 105.63 88.5161 106.708 88.76L107.689 88.9819C111.481 89.8399 113.377 90.2689 113.828 91.7195C114.279 93.17 112.987 94.6816 110.402 97.7045L109.733 98.4866C108.998 99.3456 108.631 99.7751 108.466 100.306C108.3 100.838 108.356 101.411 108.467 102.557L108.568 103.601C108.959 107.634 109.154 109.651 107.973 110.547C106.792 111.443 105.017 110.626 101.467 108.991L100.548 108.568C99.5393 108.104 99.0348 107.872 98.5 107.872C97.9652 107.872 97.4608 108.104 96.4519 108.568L95.5334 108.991C91.9829 110.626 90.2077 111.443 89.0267 110.547C87.8457 109.651 88.0412 107.634 88.432 103.601L88.5331 102.557C88.6442 101.411 88.6997 100.838 88.5345 100.306C88.3692 99.7751 88.0019 99.3456 87.2673 98.4866L86.5985 97.7045C84.0134 94.6816 82.7208 93.17 83.1719 91.7195C83.623 90.2689 85.519 89.8399 89.311 88.9819L90.292 88.76C91.3696 88.5161 91.9084 88.3942 92.341 88.0658C92.7736 87.7374 93.051 87.2397 93.6059 86.2442L94.1111 85.338Z" fill="#491E17"/>
<path d="M118.577 95.7042C119.21 94.5681 119.527 94 120 94C120.473 94 120.79 94.5681 121.423 95.7042L121.587 95.9981C121.767 96.321 121.857 96.4824 121.998 96.5889C122.138 96.6954 122.313 96.7349 122.662 96.814L122.98 96.886C124.21 97.1643 124.825 97.3034 124.971 97.7739C125.118 98.2443 124.698 98.7346 123.86 99.715L123.643 99.9686C123.405 100.247 123.286 100.386 123.232 100.559C123.179 100.731 123.197 100.917 123.233 101.289L123.265 101.627C123.392 102.935 123.455 103.589 123.072 103.88C122.689 104.171 122.114 103.906 120.962 103.376L120.664 103.238C120.337 103.088 120.173 103.012 120 103.012C119.827 103.012 119.663 103.088 119.336 103.238L119.038 103.376C117.886 103.906 117.311 104.171 116.928 103.88C116.545 103.589 116.608 102.935 116.735 101.627L116.767 101.289C116.804 100.917 116.822 100.731 116.768 100.559C116.714 100.386 116.595 100.247 116.357 99.9686L116.14 99.715C115.302 98.7346 114.882 98.2443 115.029 97.7739C115.175 97.3034 115.79 97.1643 117.02 96.886L117.338 96.814C117.687 96.7349 117.862 96.6954 118.002 96.5889C118.143 96.4824 118.233 96.321 118.413 95.9981L118.577 95.7042Z" fill="#491E17"/>
</svg>
